<svg width="96" height="40" viewBox="0 0 96 40" fill="none" xmlns="http://www.w3.org/2000/svg">
<path d="M19.2666 28.1V27.3H10.8333V28.1C11.2666 28.1333 12.1666 28.3333 12.5666 28.5C13.1333 28.7333 13.3 29.1333 13.3 29.6667V31.5667C12.9 32.9333 11.6666 33.8667 10.0666 33.8667C7.49997 33.8667 5.76664 30.7333 5.76664 26.2333C5.76664 21.6333 7.39997 18.9333 10.4333 18.9333C12.8333 18.9333 14.1666 20.5 15.4333 24.1667H16.4333L16.3333 18.1H15.4L14.7333 19.0667C13.6666 18.5 12.3 17.9333 10.3333 17.9333C5.06664 17.9333 1.36664 21.4667 1.36664 26.6667C1.36664 32.3 5.06664 34.9667 9.49997 34.9667C11.7666 34.9667 13.5666 34.2667 14.9666 33.6L16.3666 34.9667L17.1 34.8333V29.5333C17.1 29 17.2333 28.5667 17.8333 28.3667C18.2666 28.2333 18.8 28.1333 19.2666 28.1ZM29.9 25.5667C29.9 24.2 29.0333 23.2667 27.7666 23.2667C26.6 23.2667 25.5666 23.9 24.5666 25.1667H24.5333V23.5667L24.3666 23.4L19.2333 23.6667V24.3667C19.6666 24.4 20.1333 24.5 20.4333 24.7C20.8 24.9667 21.0333 25.4667 21.0666 25.9667V32.6333C21.0666 33.1667 20.9 33.5333 20.4333 33.7C20.1 33.8 19.8 33.8333 19.3666 33.8667V34.6H26.7V33.8667C26.3333 33.8333 25.5 33.7333 25.1333 33.5667C24.7 33.3667 24.4666 33.0333 24.4666 32.5V26.1667C24.6666 25.8333 25.4333 24.9333 26.5 24.9333C26.4666 25.1 26.3 25.5667 26.3 26.1C26.3 27.1667 27.1 27.6333 28.0666 27.6333C29.1666 27.6333 29.9 26.7 29.9 25.5667ZM42.6 29.0333C42.6 25.6667 40.3333 23.2333 36.5 23.2333C32.7666 23.2333 30.4 25.6333 30.4 29.1C30.4 32.7667 33.1333 34.9667 36.4 34.9667C40.5 34.9667 42.6 32.3333 42.6 29.0333ZM38.8333 29C38.8333 31.8333 38.2333 34.1333 36.5666 34.1333C34.8 34.1333 34.2333 31.7667 34.2333 28.9667C34.2333 26.7 34.6333 24.0667 36.5666 24.0667C38.3666 24.0667 38.8333 26.5 38.8333 29ZM56.9 34.3667V33.6667C56.4666 33.6333 55.9666 33.6 55.6666 33.4C55.3 33.1333 55.1 32.7667 55.0333 32.2667V23.5667L54.8666 23.4L49.7 23.7V24.4333C50.2333 24.4667 50.8 24.5 51.0333 24.7C51.4 24.9667 51.5666 25.3667 51.6 25.8667V31.9333C51.3666 32.4 50.7 33.4 49.3666 33.4C48.6 33.4 47.9666 32.6 47.9666 31V23.5667L47.8333 23.4L42.6666 23.7V24.4C43.1 24.4333 43.6 24.5333 43.9 24.7333C44.2666 25 44.4666 25.3333 44.5333 25.9333V31.0333C44.5333 33.2667 45.4333 34.9333 47.6666 34.9333C49.7333 34.9333 50.6666 33.9667 51.5666 33.0667H51.6333V34.5333L51.8 34.7L56.9 34.3667ZM69.9666 29.1667C69.9666 25.6 67.9 23.2333 65.1333 23.2333C63.6666 23.2333 62.4666 24.2 61.9 24.8L61.8 24.7667V23.5333L61.6333 23.4L56.4666 23.6667V24.3667C56.9 24.4 57.5 24.5333 57.7666 24.7333C58.1333 25 58.3333 25.4333 58.4 25.9333C58.4 27.6667 58.4 35.6667 58.4 37.9333C58.4 38.4667 58.2333 38.9 57.7666 39.0333C57.4333 39.1333 56.8666 39.2333 56.4333 39.2333V39.9667H64.2666V39.2333C63.8333 39.2 62.8666 39.0333 62.5 38.8667C62.0666 38.7 61.8333 38.3 61.8333 37.7667C61.8333 36.9667 61.8333 35.1 61.8333 34.1H61.9333C62.4666 34.5 63.3333 34.8333 64.6666 34.8333C67.4333 34.9 69.9666 32.5 69.9666 29.1667ZM66.2333 29.2C66.2333 32.2667 65.2333 33.9333 63.8333 33.9333C62.6 33.9333 62.0666 32.9333 61.8333 32.2V25.7667C62.3 25.1333 62.8 24.7333 63.7333 24.7333C65.5666 24.7333 66.2333 27 66.2333 29.2Z" fill="white"/>
<path d="M16.5666 10.9H15.7C15.1666 12.2 14.4 13.6 13.5666 14.6333C13.1 15.1667 12.3666 15.3333 9.73331 15.3333H5.53331L16.2666 0.633333V0H2.06664L1.56664 4.9H2.49998C3.79998 2.5 4.46664 1.56667 5.09998 1.3C5.59998 1.06667 6.26664 0.966667 7.63331 0.966667H11.3666L0.599976 15.7V16.3333H16.0333L16.5666 10.9ZM30.5666 16.0667V15.3333C30.1333 15.3 29.6333 15.2667 29.3333 15.0667C28.9666 14.8 28.7666 14.4333 28.7 13.9333V5.26667L28.5333 5.1L23.3666 5.4V6.13333C23.9 6.16667 24.4666 6.2 24.7 6.4C25.0666 6.66667 25.2333 7.06667 25.2666 7.56667V13.6333C25.0333 14.1 24.3666 15.1 23.0333 15.1C22.2666 15.1 21.6333 14.3 21.6333 12.7V5.26667L21.5 5.1L16.3333 5.4V6.1C16.7666 6.13333 17.2666 6.23333 17.5666 6.43333C17.9333 6.7 18.1333 7.03333 18.2 7.63333V12.7333C18.2 14.9667 19.1 16.6333 21.3333 16.6333C23.4 16.6333 24.3333 15.6667 25.2333 14.7667H25.3V16.2333L25.4666 16.4L30.5666 16.0667ZM41.8333 7.26667C41.8333 5.9 40.9666 4.96667 39.7 4.96667C38.5333 4.96667 37.5 5.6 36.5 6.86667H36.4666V5.26667L36.3 5.1L31.2 5.4V6.1C31.6333 6.13333 32.1 6.23333 32.4 6.43333C32.7666 6.7 33 7.2 33.0333 7.7V14.3667C33.0333 14.9 32.8666 15.2667 32.4 15.4333C32.0666 15.5333 31.7666 15.5667 31.3333 15.6V16.3333H38.6666V15.6C38.3 15.5667 37.4666 15.4667 37.1 15.3C36.6666 15.1 36.4333 14.7667 36.4333 14.2333V7.9C36.6333 7.56667 37.4 6.66667 38.4666 6.66667C38.4333 6.83333 38.2666 7.3 38.2666 7.83333C38.2666 8.9 39.0666 9.36667 40.0333 9.36667C41.1333 9.33333 41.8333 8.4 41.8333 7.26667ZM60.6333 16.3V15.5C60.2666 15.4667 59.8 15.4 59.4 15.3C58.6666 15.1 58.3333 14.9 58 13.9667C57.9 13.7 57.3666 12.2333 57 11.3C56.2666 9.43333 54.6 8.66667 53 8.26667V8.03333C55.6 7.33333 57.5666 6.33333 57.5666 3.73333C57.5666 1.06667 55.1333 0 51.2666 0H42.3V0.8C42.7333 0.833333 43.7333 1 44.2 1.2C44.8 1.43333 44.9333 1.83333 44.9333 2.36667V14.0333C44.9333 14.5667 44.7666 15 44.2 15.2C43.9 15.3333 42.7333 15.4333 42.3 15.4667V16.2667H51.3666V15.4667C50.9333 15.4333 49.9333 15.2667 49.6333 15.1333C49.1 14.9 48.9 14.5 48.9 13.9667V8.7H49.2C51 8.7 52.1666 9.83333 52.9333 11.7333C53.5666 13.3667 53.9333 14.5667 54.3 16.3333H60.6333V16.3ZM53.2666 4.03333C53.2666 6.6 51.5 7.7 49.4 7.7H48.9333V0.966667H49.8C51.9333 0.966667 53.2666 1.86667 53.2666 4.03333ZM72.5 10.7333C72.5 7.36667 70.2333 4.93333 66.4 4.93333C62.6666 4.93333 60.3 7.33333 60.3 10.8C60.3 14.4667 63.0333 16.6667 66.3 16.6667C70.4 16.6667 72.5 14.0333 72.5 10.7333ZM68.7 10.7C68.7 13.5333 68.1 15.8333 66.4333 15.8333C64.6666 15.8333 64.1 13.4667 64.1 10.6667C64.1 8.4 64.5 5.76667 66.4333 5.76667C68.2333 5.76667 68.7 8.2 68.7 10.7ZM82.9 12.9667C82.9 11 81.5333 9.96667 79.6 9.36667C77.7 8.76667 76.8666 8.5 76.8666 7.3C76.8666 6.46667 77.5666 5.83333 78.6 5.83333C79.9333 5.83333 81.2 7.13333 81.6666 8.66667H82.3666L82.2 4.93333H81.4333L81.1666 5.6C80.4666 5.26667 79.3 4.93333 78.2 4.93333C75.4666 4.93333 73.8666 6.5 73.8666 8.33333C73.8666 10.5667 75.6 11.4 77.1 11.9C78.7666 12.4333 79.9 12.8333 79.9 14.0333C79.9 15.1333 79.2333 15.7667 78 15.7667C76.1333 15.7667 74.6666 13.7 74.2666 12.3333H73.5666L73.7 16.4H74.5L74.8666 15.6333C75.3666 16 76.7 16.6333 78.2333 16.6333C80.8 16.7 82.9 15.3667 82.9 12.9667ZM95.1 13.6333L94.3 13.0667C93.5 14.4 92.5333 15.1333 91.1 15.1333C88.6333 15.1333 87.5333 13.4333 87.5333 10.3333H94.7666V9.66667C94.7666 7.13333 93.4 4.93333 89.6333 4.93333C86 4.93333 83.8666 7.7 83.8666 10.7333C83.8666 14.0667 85.7666 16.6667 89.8666 16.6667C92.2333 16.6667 94.1333 15.3333 95.1 13.6333ZM91.1666 9.4L87.5333 9.43333C87.5666 7 88.3666 5.76667 89.5 5.76667C90.9 5.8 91.1666 7.53333 91.1666 9.4Z" fill="white"/>
</svg>
