<svg width="245" height="69" viewBox="0 0 245 69" fill="none" xmlns="http://www.w3.org/2000/svg">
<path d="M63.501 0H2.49909C0.549086 0 -0.64729 2.19533 0.371709 3.90371L2.05393 6.724C2.50756 7.48451 3.31324 7.94811 4.18131 7.94811H48.4636C50.3623 7.94811 51.5653 10.0406 50.649 11.7494L47.9889 16.71C47.0726 18.4188 48.2755 20.5112 50.1742 20.5112H54.5184C55.3948 20.5112 56.207 20.0387 56.658 19.2665L65.6406 3.88303C66.6384 2.17412 65.4405 0 63.501 0Z" fill="#38947F"/>
<path d="M17.2822 34.3678L7.22303 16.6769C6.25115 14.9676 7.4509 12.8195 9.37742 12.8195H41.0445C42.984 12.8195 44.1819 14.9936 43.1841 16.7026L41.687 19.2665C41.236 20.0387 40.4238 20.5112 39.5474 20.5112H26.7827C24.9278 20.5112 23.7214 22.517 24.5509 24.2218C24.9736 25.0904 25.8376 25.6391 26.7827 25.6391H48.2534C50.1987 25.6391 51.3958 27.8249 50.3863 29.5336L33.7043 57.7667C32.7113 59.4473 30.3227 59.4013 29.3916 57.6836L22.5657 45.0903C21.6394 43.3814 22.8418 41.2789 24.7455 41.2789H32.0508C32.9332 41.2789 33.75 40.8 34.199 40.0193L34.4938 39.5065C35.4767 37.7974 34.2777 35.6383 32.3457 35.6383H19.4366C18.5498 35.6383 17.7296 35.1546 17.2822 34.3678Z" fill="#38947F"/>
<path d="M17.2822 34.3678L7.22303 16.6769C6.25115 14.9676 7.4509 12.8195 9.37742 12.8195H41.0445C42.984 12.8195 44.1819 14.9936 43.1841 16.7026L41.687 19.2665C41.236 20.0387 40.4238 20.5112 39.5474 20.5112H26.7827C24.9278 20.5112 23.7214 22.517 24.5509 24.2218C24.9736 25.0904 25.8376 25.6391 26.7827 25.6391H48.2534C50.1987 25.6391 51.3958 27.8249 50.3863 29.5336L33.7043 57.7667C32.7113 59.4473 30.3227 59.4013 29.3916 57.6836L22.5657 45.0903C21.6394 43.3814 22.8418 41.2789 24.7455 41.2789H32.0508C32.9332 41.2789 33.75 40.8 34.199 40.0193L34.4938 39.5065C35.4767 37.7974 34.2777 35.6383 32.3457 35.6383H19.4366C18.5498 35.6383 17.7296 35.1546 17.2822 34.3678Z" fill="#22594C"/>
<path d="M92.968 14.966L84.52 38H78.91L70.462 14.966H75.412L81.748 33.281L88.051 14.966H92.968Z" fill="#22594C"/>
<path d="M98.0809 17.54C97.2669 17.54 96.5849 17.287 96.0349 16.781C95.5069 16.253 95.2429 15.604 95.2429 14.834C95.2429 14.064 95.5069 13.426 96.0349 12.92C96.5849 12.392 97.2669 12.128 98.0809 12.128C98.8949 12.128 99.5659 12.392 100.094 12.92C100.644 13.426 100.919 14.064 100.919 14.834C100.919 15.604 100.644 16.253 100.094 16.781C99.5659 17.287 98.8949 17.54 98.0809 17.54ZM100.358 19.718V38H95.7379V19.718H100.358Z" fill="#22594C"/>
<path d="M110.302 23.513V32.357C110.302 32.973 110.445 33.424 110.731 33.71C111.039 33.974 111.545 34.106 112.249 34.106H114.394V38H111.49C107.596 38 105.649 36.108 105.649 32.324V23.513H103.471V19.718H105.649V15.197H110.302V19.718H114.394V23.513H110.302Z" fill="#22594C"/>
<path d="M116.528 28.793C116.528 26.945 116.891 25.306 117.617 23.876C118.365 22.446 119.366 21.346 120.62 20.576C121.896 19.806 123.315 19.421 124.877 19.421C126.241 19.421 127.429 19.696 128.441 20.246C129.475 20.796 130.3 21.489 130.916 22.325V19.718H135.569V38H130.916V35.327C130.322 36.185 129.497 36.9 128.441 37.472C127.407 38.022 126.208 38.297 124.844 38.297C123.304 38.297 121.896 37.901 120.62 37.109C119.366 36.317 118.365 35.206 117.617 33.776C116.891 32.324 116.528 30.663 116.528 28.793ZM130.916 28.859C130.916 27.737 130.696 26.78 130.256 25.988C129.816 25.174 129.222 24.558 128.474 24.14C127.726 23.7 126.923 23.48 126.065 23.48C125.207 23.48 124.415 23.689 123.689 24.107C122.963 24.525 122.369 25.141 121.907 25.955C121.467 26.747 121.247 27.693 121.247 28.793C121.247 29.893 121.467 30.861 121.907 31.697C122.369 32.511 122.963 33.138 123.689 33.578C124.437 34.018 125.229 34.238 126.065 34.238C126.923 34.238 127.726 34.029 128.474 33.611C129.222 33.171 129.816 32.555 130.256 31.763C130.696 30.949 130.916 29.981 130.916 28.859Z" fill="#22594C"/>
<path d="M144.702 13.58V38H140.082V13.58H144.702Z" fill="#22594C"/>
<path d="M165.083 38.231C163.477 38.231 162.025 37.956 160.727 37.406C159.451 36.856 158.439 36.064 157.691 35.03C156.943 33.996 156.558 32.775 156.536 31.367H161.486C161.552 32.313 161.882 33.061 162.476 33.611C163.092 34.161 163.928 34.436 164.984 34.436C166.062 34.436 166.909 34.183 167.525 33.677C168.141 33.149 168.449 32.467 168.449 31.631C168.449 30.949 168.24 30.388 167.822 29.948C167.404 29.508 166.876 29.167 166.238 28.925C165.622 28.661 164.764 28.375 163.664 28.067C162.168 27.627 160.947 27.198 160.001 26.78C159.077 26.34 158.274 25.691 157.592 24.833C156.932 23.953 156.602 22.787 156.602 21.335C156.602 19.971 156.943 18.783 157.625 17.771C158.307 16.759 159.264 15.989 160.496 15.461C161.728 14.911 163.136 14.636 164.72 14.636C167.096 14.636 169.021 15.219 170.495 16.385C171.991 17.529 172.816 19.135 172.97 21.203H167.888C167.844 20.411 167.503 19.762 166.865 19.256C166.249 18.728 165.424 18.464 164.39 18.464C163.488 18.464 162.762 18.695 162.212 19.157C161.684 19.619 161.42 20.29 161.42 21.17C161.42 21.786 161.618 22.303 162.014 22.721C162.432 23.117 162.938 23.447 163.532 23.711C164.148 23.953 165.006 24.239 166.106 24.569C167.602 25.009 168.823 25.449 169.769 25.889C170.715 26.329 171.529 26.989 172.211 27.869C172.893 28.749 173.234 29.904 173.234 31.334C173.234 32.566 172.915 33.71 172.277 34.766C171.639 35.822 170.704 36.669 169.472 37.307C168.24 37.923 166.777 38.231 165.083 38.231Z" fill="#22594C"/>
<path d="M179.582 17.54C178.768 17.54 178.086 17.287 177.536 16.781C177.008 16.253 176.744 15.604 176.744 14.834C176.744 14.064 177.008 13.426 177.536 12.92C178.086 12.392 178.768 12.128 179.582 12.128C180.396 12.128 181.067 12.392 181.595 12.92C182.145 13.426 182.42 14.064 182.42 14.834C182.42 15.604 182.145 16.253 181.595 16.781C181.067 17.287 180.396 17.54 179.582 17.54ZM181.859 19.718V38H177.239V19.718H181.859Z" fill="#22594C"/>
<path d="M193.584 19.421C194.948 19.421 196.147 19.696 197.181 20.246C198.215 20.774 199.029 21.467 199.623 22.325V19.718H204.276V38.132C204.276 39.826 203.935 41.333 203.253 42.653C202.571 43.995 201.548 45.051 200.184 45.821C198.82 46.613 197.17 47.009 195.234 47.009C192.638 47.009 190.504 46.404 188.832 45.194C187.182 43.984 186.247 42.334 186.027 40.244H190.614C190.856 41.08 191.373 41.74 192.165 42.224C192.979 42.73 193.958 42.983 195.102 42.983C196.444 42.983 197.534 42.576 198.369 41.762C199.206 40.97 199.623 39.76 199.623 38.132V35.294C199.029 36.152 198.204 36.867 197.148 37.439C196.114 38.011 194.926 38.297 193.584 38.297C192.044 38.297 190.636 37.901 189.36 37.109C188.084 36.317 187.072 35.206 186.324 33.776C185.598 32.324 185.235 30.663 185.235 28.793C185.235 26.945 185.598 25.306 186.324 23.876C187.072 22.446 188.073 21.346 189.327 20.576C190.603 19.806 192.022 19.421 193.584 19.421ZM199.623 28.859C199.623 27.737 199.403 26.78 198.963 25.988C198.523 25.174 197.929 24.558 197.181 24.14C196.433 23.7 195.63 23.48 194.772 23.48C193.914 23.48 193.122 23.689 192.396 24.107C191.67 24.525 191.076 25.141 190.614 25.955C190.174 26.747 189.954 27.693 189.954 28.793C189.954 29.893 190.174 30.861 190.614 31.697C191.076 32.511 191.67 33.138 192.396 33.578C193.144 34.018 193.936 34.238 194.772 34.238C195.63 34.238 196.433 34.029 197.181 33.611C197.929 33.171 198.523 32.555 198.963 31.763C199.403 30.949 199.623 29.981 199.623 28.859Z" fill="#22594C"/>
<path d="M218.92 19.454C221.098 19.454 222.858 20.147 224.2 21.533C225.542 22.897 226.213 24.811 226.213 27.275V38H221.593V27.902C221.593 26.45 221.23 25.339 220.504 24.569C219.778 23.777 218.788 23.381 217.534 23.381C216.258 23.381 215.246 23.777 214.498 24.569C213.772 25.339 213.409 26.45 213.409 27.902V38H208.789V19.718H213.409V21.995C214.025 21.203 214.806 20.587 215.752 20.147C216.72 19.685 217.776 19.454 218.92 19.454Z" fill="#22594C"/>
<path d="M237.602 38.297C236.106 38.297 234.764 38.033 233.576 37.505C232.388 36.955 231.442 36.218 230.738 35.294C230.056 34.37 229.682 33.347 229.616 32.225H234.269C234.357 32.929 234.698 33.512 235.292 33.974C235.908 34.436 236.667 34.667 237.569 34.667C238.449 34.667 239.131 34.491 239.615 34.139C240.121 33.787 240.374 33.336 240.374 32.786C240.374 32.192 240.066 31.752 239.45 31.466C238.856 31.158 237.899 30.828 236.579 30.476C235.215 30.146 234.093 29.805 233.213 29.453C232.355 29.101 231.607 28.562 230.969 27.836C230.353 27.11 230.045 26.131 230.045 24.899C230.045 23.887 230.331 22.963 230.903 22.127C231.497 21.291 232.333 20.631 233.411 20.147C234.511 19.663 235.798 19.421 237.272 19.421C239.45 19.421 241.188 19.971 242.486 21.071C243.784 22.149 244.499 23.612 244.631 25.46H240.209C240.143 24.734 239.835 24.162 239.285 23.744C238.757 23.304 238.042 23.084 237.14 23.084C236.304 23.084 235.655 23.238 235.193 23.546C234.753 23.854 234.533 24.283 234.533 24.833C234.533 25.449 234.841 25.922 235.457 26.252C236.073 26.56 237.03 26.879 238.328 27.209C239.648 27.539 240.737 27.88 241.595 28.232C242.453 28.584 243.19 29.134 243.806 29.882C244.444 30.608 244.774 31.576 244.796 32.786C244.796 33.842 244.499 34.788 243.905 35.624C243.333 36.46 242.497 37.12 241.397 37.604C240.319 38.066 239.054 38.297 237.602 38.297Z" fill="#22594C"/>
<path d="M67.9143 59.9045H56.2857V59.5091L64.3464 47.5136H61.7036C60.6464 47.5136 60.1179 47.6454 59.7214 47.7773C59.1929 48.0409 58.4 48.7 57.475 50.8091H56.9464L57.3429 46.9863H68.1786V47.3818L59.9857 59.3772H62.8929C65.0071 59.3772 65.5357 59.2454 65.9322 58.85C66.725 57.9273 67.3857 56.7409 67.7822 55.8182H68.3107L67.9143 59.9045Z" fill="#38947F"/>
<path d="M75.4464 59.9046L75.3143 59.7727V58.5864C74.6536 59.3773 73.9929 60.0363 72.275 60.0363C70.5572 60.0363 69.7643 58.7182 69.7643 56.8727V52.6546C69.7643 52.2591 69.6322 51.8636 69.2357 51.7318C68.9715 51.6 68.575 51.4682 68.3107 51.4682V51.0727L72.4072 50.8091L72.5393 50.9409V57.0045C72.5393 58.1909 72.9357 58.85 73.5964 58.85C74.5214 58.85 75.05 58.1909 75.1822 57.7955V52.6546C75.1822 52.2591 75.05 51.8636 74.7857 51.7318C74.6536 51.6 74.125 51.4682 73.7286 51.4682V51.0727L77.825 50.8091L77.9571 50.9409V58.0591C77.9571 58.4545 78.0893 58.85 78.4857 58.9818C78.75 59.1136 79.1464 59.2455 79.4107 59.2455V59.6409L75.4464 59.9046Z" fill="#38947F"/>
<path d="M87.075 54.2364C86.2822 54.2364 85.6214 53.8409 85.6214 53.05C85.6214 52.6545 85.7536 52.3909 85.8857 52.1273C85.0928 52.1273 84.5643 52.7864 84.4322 53.05V58.4546C84.4322 58.85 84.5643 59.1137 84.9607 59.2455C85.225 59.3773 85.8857 59.5091 86.2822 59.5091V59.9046H80.4679V59.5091C80.7322 59.5091 80.9964 59.5091 81.2607 59.3773C81.6571 59.2454 81.7893 58.9818 81.7893 58.5864V52.9182C81.7893 52.5227 81.525 52.1273 81.2607 51.8636C80.9964 51.7318 80.6 51.6 80.3357 51.6V51.2046L84.4322 50.9409L84.5643 51.0727V52.3909C85.3571 51.3364 86.15 50.9409 87.075 50.9409C88 50.9409 88.7929 51.6 88.7929 52.6546C88.5286 53.4455 87.8679 54.2364 87.075 54.2364Z" fill="#38947F"/>
<path d="M104.914 49.7545C104.914 51.8636 103.196 52.7864 101.479 53.1818V53.3136C102.404 53.4455 103.857 53.8409 104.254 55.2909C104.518 56.3455 104.65 57.0046 104.782 57.9273C104.914 58.5864 105.311 58.85 105.707 58.85C106.104 58.85 106.5 58.3227 106.5 57.2682V56.7409H107.029V57.2682C107.029 58.85 106.5 60.0363 104.254 60.0363C102.536 60.0363 101.611 59.2454 101.346 56.8727C101.082 54.7636 100.686 53.5773 98.9679 53.5773H98.3072V58.0591C98.3072 58.4545 98.4393 58.85 98.8357 58.9818C99.1 59.1136 99.8929 59.2455 100.157 59.2455V59.6409H93.0215V59.2455C93.4179 59.2455 94.2107 59.1136 94.475 58.9818C94.8714 58.85 95.0036 58.4545 95.0036 58.0591V48.3045C95.0036 47.9091 94.8714 47.5136 94.475 47.3818C94.0786 47.25 93.2857 47.1182 93.0215 46.9864V46.5909H100.025C102.932 46.8545 104.914 47.7773 104.914 49.7545ZM98.175 47.3818V53.05H98.4393C100.157 53.05 101.346 52.3909 101.346 50.15C101.346 48.1727 100.289 47.3818 98.7036 47.3818H98.175Z" fill="#38947F"/>
<path d="M112.314 60.1682C109.671 60.1682 107.557 58.4545 107.557 55.4227C107.557 52.6545 109.407 50.8091 112.314 50.8091C115.354 50.8091 117.071 52.7863 117.071 55.4227C117.204 58.0591 115.486 60.1682 112.314 60.1682ZM112.446 51.2045C110.993 51.2045 110.729 53.4455 110.729 55.2909C110.729 57.5318 110.993 59.6409 112.446 59.6409C113.768 59.6409 114.164 57.6636 114.164 55.4227C114.032 53.3136 113.9 51.2045 112.446 51.2045Z" fill="#38947F"/>
<path d="M121.696 60.1682C120.507 60.1682 119.45 59.6409 119.054 59.3773L118.657 60.0363H118.129L117.996 56.7409H118.393C118.789 57.9273 119.979 59.7727 121.564 59.7727C122.489 59.7727 123.018 59.2455 123.018 58.3227C123.018 57.2682 122.093 57.0046 120.771 56.6091C119.45 56.2136 118.261 55.4227 118.261 53.7091C118.261 52.2591 119.582 51.0727 121.696 51.0727C122.621 51.0727 123.414 51.3364 124.075 51.6L124.339 51.0727H124.868L125 54.1045H124.604C124.207 52.7863 123.15 51.6 121.961 51.6C121.036 51.6 120.639 52.1273 120.639 52.9182C120.639 53.9727 121.3 54.1046 122.754 54.6318C124.207 55.1591 125.264 55.95 125.264 57.5318C125.396 59.1136 123.811 60.1682 121.696 60.1682Z" fill="#38947F"/>
<path d="M130.946 60.1682C127.775 60.1682 126.321 58.0591 126.321 55.4227C126.321 52.9182 127.907 50.8091 130.814 50.8091C133.721 50.8091 134.779 52.6546 134.779 54.6318V54.8954H129.361V55.1591C129.361 57.4 130.021 59.1136 131.871 59.1136C133.061 59.1136 133.854 58.7182 134.514 57.4L134.911 57.6636C134.25 58.9818 132.796 60.1682 130.946 60.1682ZM130.682 51.3364C129.757 51.3364 129.361 52.3909 129.361 54.3682H131.871C131.739 52.7864 131.739 51.3364 130.682 51.3364Z" fill="#38947F"/>
<path d="M150.239 47.3818L150.768 46.7227H151.429L151.561 51.6H151.032C149.975 48.7 148.786 47.25 146.936 47.25C144.557 47.25 143.368 49.6227 143.368 53.3136C143.368 57.0046 144.557 59.6409 146.671 59.6409C147.861 59.6409 148.786 58.85 149.05 57.7955C149.05 57.7955 149.05 56.2136 149.05 55.95C149.05 55.5546 148.918 55.1591 148.389 54.8954C147.993 54.7636 147.332 54.6318 147.068 54.6318V54.2364H153.807V54.6318C153.411 54.6318 153.014 54.7636 152.75 54.8954C152.354 55.0273 152.221 55.4227 152.221 55.8182V60.1682L151.957 60.3L150.768 59.1136C149.579 59.7727 148.125 60.3 146.407 60.3C142.971 60.3 140.064 58.1909 140.064 53.7091C140.064 49.4909 142.971 46.7227 147.068 46.7227C148.257 46.4591 149.314 46.8546 150.239 47.3818Z" fill="#38947F"/>
<path d="M160.546 54.2364C159.754 54.2364 159.093 53.8409 159.093 53.05C159.093 52.6545 159.225 52.3909 159.357 52.1273C158.564 52.1273 158.036 52.7864 157.904 53.05V58.4546C157.904 58.85 158.036 59.1137 158.432 59.2455C158.696 59.3773 159.357 59.5091 159.754 59.5091V59.9046H153.939V59.5091C154.204 59.5091 154.468 59.5091 154.732 59.3773C155.129 59.2454 155.261 58.9818 155.261 58.5864V52.9182C155.261 52.5227 154.996 52.1273 154.732 51.8636C154.468 51.7318 154.071 51.6 153.807 51.6V51.2046L157.904 50.9409L158.036 51.0727V52.3909C158.829 51.3364 159.621 50.9409 160.546 50.9409C161.471 50.9409 162.264 51.6 162.264 52.6546C162 53.4455 161.471 54.2364 160.546 54.2364Z" fill="#38947F"/>
<path d="M167.286 60.1682C164.643 60.1682 162.529 58.4545 162.529 55.4227C162.529 52.6545 164.379 50.8091 167.286 50.8091C170.325 50.8091 172.043 52.7863 172.043 55.4227C172.043 58.0591 170.457 60.1682 167.286 60.1682ZM167.286 51.2045C165.832 51.2045 165.568 53.4455 165.568 55.2909C165.568 57.5318 165.832 59.6409 167.286 59.6409C168.607 59.6409 169.004 57.6636 169.004 55.4227C169.004 53.3136 168.739 51.2045 167.286 51.2045Z" fill="#38947F"/>
<path d="M179.311 59.9046L179.179 59.7727V58.5864C178.518 59.3773 177.857 60.0363 176.139 60.0363C174.421 60.0363 173.629 58.7182 173.629 56.8727V52.6546C173.629 52.2591 173.496 51.8636 173.1 51.7318C172.836 51.6 172.439 51.4682 172.175 51.4682V51.0727L176.271 50.8091L176.404 50.9409V57.0045C176.404 58.1909 176.8 58.85 177.461 58.85C178.386 58.85 178.914 58.1909 179.046 57.7955V52.6546C179.046 52.2591 178.914 51.8636 178.65 51.7318C178.518 51.6 177.989 51.4682 177.593 51.4682V51.0727L181.689 50.8091L181.821 50.9409V58.0591C181.821 58.4545 181.954 58.85 182.35 58.9818C182.614 59.1136 183.011 59.2455 183.275 59.2455V59.6409L179.311 59.9046Z" fill="#38947F"/>
<path d="M189.618 60.1682C188.561 60.1682 188.032 59.9045 187.504 59.6409H187.371C187.371 60.0364 187.371 62.4091 187.371 62.6727C187.371 63.2 187.504 63.4636 187.9 63.5955C188.164 63.7273 188.957 63.8591 189.354 63.8591V64.2545H183.143V63.8591C183.539 63.8591 183.936 63.7273 184.2 63.7273C184.596 63.5955 184.729 63.2 184.729 62.8045C184.729 62.0136 184.729 53.4454 184.729 52.9182C184.729 52.5227 184.596 52.1273 184.2 51.9955C183.936 51.8636 183.539 51.7318 183.143 51.7318V51.3364L187.239 51.0727L187.371 51.2045V52.2591H187.504C187.9 51.7318 188.825 51.0727 190.014 51.0727C192.129 51.0727 193.714 52.9182 193.714 55.8182C193.714 58.1909 191.732 60.1682 189.618 60.1682ZM188.825 51.8636C188.164 51.8636 187.768 52.1273 187.371 52.6546V58.1909C187.504 58.7182 187.9 59.5091 188.825 59.5091C189.882 59.5091 190.543 58.0591 190.543 55.5545C190.675 53.8409 190.279 51.8636 188.825 51.8636Z" fill="#38947F"/>
</svg>
